<?xml version="1.0" encoding="UTF-8"?>
<svg version="1.1" xmlns="http://www.w3.org/2000/svg" width="1128" height="426">
<path d="M0 0 C9.78217614 6.82009664 15.60781578 15.93449602 17.77734375 27.64453125 C18.05058632 31.08194768 18.0519815 34.50253557 18.03804016 37.94949341 C18.04186571 38.96169445 18.04569126 39.97389549 18.04963273 41.01676929 C18.0599193 44.39551029 18.05597865 47.77407997 18.05200195 51.15283203 C18.05635115 53.58134111 18.06153499 56.00984882 18.06748962 58.43835449 C18.07948672 64.34554913 18.08203227 70.25270159 18.07968936 76.15990378 C18.07790181 80.97074212 18.07966523 85.78156671 18.0839138 90.59240341 C18.08450899 91.2788079 18.08510418 91.96521238 18.08571741 92.67241701 C18.08692928 94.06728865 18.08814341 95.46216029 18.08935978 96.85703193 C18.10023046 109.93319439 18.09807663 123.00933106 18.09197494 136.08549498 C18.08682121 148.00089805 18.09802108 159.91621897 18.11707316 171.83160581 C18.13653963 184.10164767 18.14469127 196.37165088 18.1409499 208.64170825 C18.13904921 215.51583675 18.14141248 222.38989561 18.15566444 229.26401138 C18.16896284 235.7434305 18.16619967 242.22272786 18.15325356 248.70214844 C18.15091006 251.06337415 18.1535411 253.42461166 18.16187668 255.78582382 C18.29401073 296.17089868 9.30125275 335.75333551 -18.22265625 366.64453125 C-18.9290625 367.47082031 -19.63546875 368.29710937 -20.36328125 369.1484375 C-42.16590516 394.20576965 -71.62993056 411.21684681 -104.22265625 417.64453125 C-105.12169678 417.82330811 -106.0207373 418.00208496 -106.94702148 418.1862793 C-115.79970994 419.75352838 -124.48866115 419.98425865 -133.44995117 419.96020508 C-135.88962101 419.95705774 -138.32805809 419.98055264 -140.76757812 420.00585938 C-155.28903631 420.06528662 -169.46271827 418.2858429 -183.34765625 413.89453125 C-184.17765137 413.63631592 -185.00764648 413.37810059 -185.86279297 413.11206055 C-205.25542581 406.90619501 -222.97628569 397.21039132 -238.22265625 383.64453125 C-239.49496094 382.55205078 -239.49496094 382.55205078 -240.79296875 381.4375 C-269.04849918 356.7679161 -286.48149199 320.8258487 -290.22265625 283.64453125 C-290.3808705 280.80981022 -290.43177983 277.9793481 -290.4609375 275.140625 C-290.47082199 274.34850616 -290.48070648 273.55638733 -290.4908905 272.74026489 C-290.66241739 255.41848353 -290.76784501 238.49445997 -286.22265625 221.64453125 C-285.96484375 220.68659668 -285.70703125 219.72866211 -285.44140625 218.74169922 C-279.79072142 198.60132428 -270.9587404 178.61555414 -257.22265625 162.64453125 C-256.50722656 161.8040625 -255.79179687 160.96359375 -255.0546875 160.09765625 C-252.82842927 157.5601159 -250.5434587 155.09575897 -248.22265625 152.64453125 C-246.97548828 151.30068359 -246.97548828 151.30068359 -245.703125 149.9296875 C-220.96219517 124.1020404 -185.93457264 110.72638767 -150.55859375 109.51953125 C-120.10493518 109.03900015 -91.71678414 116.8566113 -66.22265625 133.64453125 C-65.89265625 133.97453125 -65.56265625 134.30453125 -65.22265625 134.64453125 C-65.22118969 134.09898968 -65.21972313 133.5534481 -65.21821213 132.99137497 C-65.1810313 119.66807153 -65.12161979 106.34502329 -65.03875351 93.02192307 C-64.99933995 86.57873302 -64.96712128 80.13567839 -64.95166016 73.69238281 C-64.93645353 67.46764725 -64.90193622 61.24328415 -64.85434723 55.0187149 C-64.83957482 52.65066017 -64.83161763 50.28255226 -64.8307724 47.9144516 C-64.81870509 31.04939384 -64.71352726 17.4459143 -52.375 4.7421875 C-38.77283992 -8.04871054 -15.8114136 -9.64246137 0 0 Z M-156.22265625 200.64453125 C-157.08065779 206.69465914 -157.93506027 212.74528023 -158.78613281 218.79638672 C-159.07615908 220.85479459 -159.367168 222.91306426 -159.65917969 224.97119141 C-160.07875915 227.92965475 -160.49480123 230.88859724 -160.91015625 233.84765625 C-161.04139893 234.76758362 -161.1726416 235.68751099 -161.30786133 236.63531494 C-161.42798584 237.49590515 -161.54811035 238.35649536 -161.671875 239.24316406 C-161.77846436 239.998172 -161.88505371 240.75317993 -161.99487305 241.53106689 C-162.29409399 243.95307538 -162.29409399 243.95307538 -162.22265625 247.64453125 C-162.9602417 247.74685059 -163.69782715 247.84916992 -164.45776367 247.95458984 C-173.91135965 249.33089767 -183.2021921 251.2488348 -192.53515625 253.26953125 C-194.0656816 253.59799942 -195.59628021 253.92612645 -197.12695312 254.25390625 C-200.82637433 255.046864 -204.52478325 255.84438611 -208.22265625 256.64453125 C-205.38211644 258.90548617 -202.57650198 260.55662102 -199.29296875 262.09765625 C-198.33849854 262.54906982 -197.38402832 263.0004834 -196.40063477 263.46557617 C-195.39315186 263.93713135 -194.38566895 264.40868652 -193.34765625 264.89453125 C-191.27558523 265.87403503 -189.20396975 266.85450305 -187.1328125 267.8359375 C-185.62098389 268.55160889 -185.62098389 268.55160889 -184.07861328 269.28173828 C-178.4168957 271.98337169 -172.8159032 274.80428626 -167.22265625 277.64453125 C-167.76932185 288.01232705 -168.94332067 298.27808102 -170.20629883 308.57958984 C-170.33673584 309.66320801 -170.46717285 310.74682617 -170.6015625 311.86328125 C-170.72088135 312.83201172 -170.8402002 313.80074219 -170.96313477 314.79882812 C-171.23346241 317.7630229 -171.26641972 320.66971641 -171.22265625 323.64453125 C-166.04919244 319.36762407 -161.44272404 314.8385049 -156.91015625 309.89453125 C-151.14397656 303.66967002 -145.28744047 297.58088474 -139.22265625 291.64453125 C-129.96596983 294.39292931 -121.45070626 298.66408947 -112.77197266 302.82788086 C-110.77076765 303.78581375 -108.76640021 304.73686939 -106.76171875 305.6875 C-105.57787598 306.2549292 -104.3940332 306.8223584 -103.17431641 307.40698242 C-100.29497839 308.83786215 -100.29497839 308.83786215 -97.22265625 308.64453125 C-98.65161629 303.83146034 -100.7359662 299.59833181 -103.171875 295.234375 C-103.94521437 293.81866127 -104.71798408 292.40263623 -105.49023438 290.98632812 C-106.70223835 288.77536293 -107.91847558 286.56708541 -109.14477539 284.36401367 C-110.33335918 282.22342158 -111.50376801 280.07369241 -112.671875 277.921875 C-113.04261642 277.26654282 -113.41335785 276.61121063 -113.79533386 275.9360199 C-115.34271568 273.05913789 -116.25197073 271.11106987 -116.04467773 267.81201172 C-115.02105688 265.11296036 -113.72078246 263.77891339 -111.59765625 261.83203125 C-108.96730421 259.33134445 -106.45179527 256.84454132 -104.09765625 254.08203125 C-98.36154498 247.40557387 -92.24763757 241.05915058 -86.22265625 234.64453125 C-88.75823202 233.37674336 -89.81258193 233.76281385 -92.58056641 234.26538086 C-93.48134918 234.42562241 -94.38213196 234.58586395 -95.31021118 234.7509613 C-96.28420868 234.93111282 -97.25820618 235.11126434 -98.26171875 235.296875 C-99.25771088 235.47585831 -100.253703 235.65484161 -101.27987671 235.83924866 C-104.47028152 236.41403793 -107.65894457 236.99792945 -110.84765625 237.58203125 C-113.00640208 237.97260446 -115.16525503 238.36258615 -117.32421875 238.75195312 C-122.62496129 239.70927778 -127.92430089 240.6740867 -133.22265625 241.64453125 C-133.47934082 240.95536621 -133.73602539 240.26620117 -134.00048828 239.55615234 C-135.3878726 236.25092954 -137.03906433 233.19385465 -138.77734375 230.05859375 C-139.12016388 229.4385849 -139.46298401 228.81857605 -139.81619263 228.17977905 C-140.9072877 226.20817178 -142.00245767 224.23886143 -143.09765625 222.26953125 C-143.82577821 220.95456956 -144.55364518 219.63946665 -145.28125 218.32421875 C-148.55748352 212.40901642 -151.85928366 206.51061857 -155.22265625 200.64453125 C-155.55265625 200.64453125 -155.88265625 200.64453125 -156.22265625 200.64453125 Z " fill="#E94B59" transform="translate(290.22265625,5.35546875)"/>
<path d="M0 0 C3.21836274 2.99297251 6.37117649 6.03830288 9.4375 9.1875 C9.92089844 9.62578125 10.40429688 10.0640625 10.90234375 10.515625 C34.65598091 32.64842574 48.89184975 69.11905965 50.54450989 101.26922607 C50.60076704 103.45727574 50.62825851 105.64329363 50.640625 107.83203125 C50.64632507 108.64129562 50.65202515 109.45056 50.65789795 110.28434753 C50.66729274 111.99285602 50.67385979 113.70138218 50.67773438 115.40991211 C50.68733132 117.95526203 50.71836164 120.49976449 50.75 123.04492188 C50.84902479 138.24674757 49.10777204 153.14232149 44.75 167.75 C44.49508789 168.61584717 44.24017578 169.48169434 43.97753906 170.3737793 C38.12827762 189.5026812 28.60703602 207.09487092 15.4375 222.1875 C14.60605469 223.15171875 13.77460937 224.1159375 12.91796875 225.109375 C-11.66949489 253.09329169 -46.65763831 269.5432433 -83.5625 273.1875 C-86.4444106 273.33657125 -89.32158696 273.37432207 -92.20703125 273.390625 C-93.01629562 273.39632507 -93.82556 273.40202515 -94.65934753 273.40789795 C-96.36785602 273.41729274 -98.07638218 273.42385979 -99.78491211 273.42773438 C-102.33026203 273.43733132 -104.87476449 273.46836164 -107.41992188 273.5 C-122.47192355 273.59813648 -137.35229951 272.04032922 -151.75 267.4375 C-152.57258301 267.18145996 -153.39516602 266.92541992 -154.24267578 266.66162109 C-176.84972189 259.41426081 -196.28135168 247.49586844 -213.5625 231.1875 C-214.29984375 230.51460938 -215.0371875 229.84171875 -215.796875 229.1484375 C-243.42637385 202.98859284 -256.66295664 163.24376653 -257.78125 125.9375 C-258.62094714 81.94370725 -246.6697125 40.21911819 -215.77490234 7.92724609 C-160.07062296 -48.52924926 -59.64621888 -53.11689906 0 0 Z M-158.6875 63.3125 C-174.41023955 81.89391947 -179.15479187 105.89138538 -177.28515625 129.72265625 C-174.86095489 150.20138584 -165.71373355 168.93562878 -149.875 182.4375 C-131.66111155 196.15413204 -110.48741495 199.69302823 -88.19775391 196.89013672 C-70.3800582 193.78904796 -54.30421568 183.49693664 -43.6875 169 C-29.79369954 147.41863715 -25.71045053 121.79770434 -31.0625 96.625 C-35.42452114 78.53717949 -46.17007268 61.27597052 -61.82421875 51.05859375 C-93.34611134 31.8176727 -133.08088754 36.40808652 -158.6875 63.3125 Z " fill="#E94C5A" transform="translate(1077.5625,151.8125)"/>
<path d="M0 0 C9.71135829 7.03791637 15.50191527 16.62730117 17.48046875 28.45703125 C17.56546966 30.57260588 17.59823718 32.69058402 17.59399414 34.80786133 C17.59391861 36.06879105 17.59384308 37.32972076 17.59376526 38.62886047 C17.58865944 39.99476156 17.58344345 41.36066223 17.578125 42.7265625 C17.57625845 44.13189137 17.57483567 45.5372209 17.57383728 46.94255066 C17.57003075 50.6299725 17.56021649 54.31735455 17.5491333 58.00476074 C17.538879 61.77204856 17.53433107 65.53934285 17.52929688 69.30664062 C17.51859245 76.69012225 17.50153855 84.07357116 17.48046875 91.45703125 C18.3619458 91.44655762 19.24342285 91.43608398 20.15161133 91.42529297 C23.47471826 91.39086566 26.79763107 91.36596658 30.12084961 91.34716797 C31.54926577 91.33721385 32.97766213 91.32364563 34.40600586 91.30615234 C48.97950142 91.13235408 62.57416147 91.74507506 73.79296875 102.14453125 C82.5853123 111.52421759 83.9727566 121.62843921 83.74609375 133.96484375 C83.35252453 143.29089081 79.48218589 149.49295101 73.125 156.1875 C64.98675051 163.17172888 56.44909502 165.6230937 45.99609375 165.5546875 C45.18049988 165.55327255 44.36490601 165.5518576 43.52459717 165.55039978 C40.92651663 165.54481428 38.32852312 165.53226446 35.73046875 165.51953125 C33.96614708 165.51451437 32.20182406 165.50995179 30.4375 165.50585938 C26.11845619 165.4948496 21.79947721 165.47759494 17.48046875 165.45703125 C17.51775134 180.50482782 17.57778132 195.55240836 17.66437149 210.60000229 C17.7040617 217.58799336 17.73650472 224.57587345 17.75146484 231.56396484 C17.76593596 238.31388318 17.80116128 245.06344476 17.84877777 251.81320953 C17.86356044 254.38222504 17.87150796 256.9512897 17.8723526 259.5203476 C17.87473327 263.13209793 17.90190362 266.74290557 17.93457031 270.35449219 C17.92953995 271.40538528 17.92450958 272.45627838 17.91932678 273.53901672 C18.0477308 282.77699538 19.81228309 292.73151239 26.48046875 299.58203125 C27.14046875 300.28585937 27.80046875 300.9896875 28.48046875 301.71484375 C32.25285357 305.00094459 35.16044761 305.70378537 40.13671875 305.765625 C41.24273438 305.79076172 42.34875 305.81589844 43.48828125 305.84179688 C45.78510697 305.87648048 48.08198595 305.90782542 50.37890625 305.93554688 C63.21739308 306.23946025 73.79698161 308.37890976 83.4140625 317.23828125 C92.43109645 326.70131903 95.00724876 337.80455469 94.7578125 350.52734375 C93.94709719 362.01438043 88.95899177 370.31000484 80.85546875 378.14453125 C72.97526497 384.79250239 63.14153037 387.58732641 53.03125 387.6953125 C52.30036667 387.70338425 51.56948334 387.71145599 50.81645203 387.71977234 C49.26397041 387.73359082 47.71145869 387.74432296 46.15893555 387.75219727 C44.60480549 387.76358342 43.05071021 387.78381608 41.49682617 387.8137207 C13.87592835 388.3440372 -9.96839836 378.64496935 -30.3359375 359.859375 C-36.21710951 354.17024126 -41.20260768 348.40426639 -45.51953125 341.45703125 C-46.17695312 340.420625 -46.834375 339.38421875 -47.51171875 338.31640625 C-58.80935327 319.64333485 -63.70212555 298.88847921 -63.63305664 277.16601562 C-63.63320267 275.95540466 -63.63334869 274.7447937 -63.63349915 273.49749756 C-63.63292459 270.20053854 -63.62793225 266.90362275 -63.62092519 263.60667229 C-63.61464574 260.15270045 -63.61408423 256.69872764 -63.61289978 253.24475098 C-63.60979995 246.71430494 -63.60160483 240.18387577 -63.59155029 233.65343714 C-63.58034716 226.21445959 -63.57486814 218.7754812 -63.56985486 211.33649731 C-63.55942101 196.04333221 -63.54184782 180.75018391 -63.51953125 165.45703125 C-65.36309204 165.48422241 -65.36309204 165.48422241 -67.24389648 165.51196289 C-68.87613559 165.52662548 -70.50837874 165.54084351 -72.140625 165.5546875 C-73.35220276 165.57432556 -73.35220276 165.57432556 -74.58825684 165.59436035 C-84.43806653 165.65693856 -91.94597595 162.78842201 -99.515625 156.4375 C-107.3736965 148.67133577 -110.61527778 139.97404491 -110.95703125 129.08203125 C-110.71795088 118.69762753 -107.72722951 110.0484727 -100.51953125 102.45703125 C-91.35198868 93.94149063 -80.92396003 91.40519379 -68.765625 91.44140625 C-67.78134521 91.44366211 -66.79706543 91.44591797 -65.78295898 91.44824219 C-65.03602783 91.45114258 -64.28909668 91.45404297 -63.51953125 91.45703125 C-63.5284137 90.65460495 -63.53729614 89.85217865 -63.54644775 89.0254364 C-63.62697966 81.42065015 -63.68768999 73.81607402 -63.72677994 66.21097088 C-63.74755293 62.30216294 -63.77567893 58.39371071 -63.82128906 54.48510742 C-63.86511868 50.70493443 -63.88874547 46.92510109 -63.89904022 43.14469337 C-63.90636572 41.71073888 -63.92066858 40.27680054 -63.94245148 38.84299278 C-64.14405473 25.00820427 -61.42430691 14.6124869 -51.671875 4.55078125 C-38.10999319 -8.17527882 -15.77101855 -9.65822066 0 0 Z " fill="#E94C59" transform="translate(732.51953125,35.54296875)"/>
<path d="M0 0 C9.948554 6.77886745 16.35981523 15.07630405 18.70848083 27.05825806 C19.16995335 30.3147862 19.28820328 33.38586292 19.28149414 36.67333984 C19.28141861 37.91417328 19.28134308 39.15500671 19.28126526 40.43344116 C19.27615988 41.77203411 19.2709439 43.11062664 19.265625 44.44921875 C19.26375781 45.83069813 19.26233533 47.21217817 19.26133728 48.59365845 C19.25753577 52.21366228 19.24772591 55.83362542 19.2366333 59.45361328 C19.2263681 63.15396576 19.22182875 66.85432486 19.21679688 70.5546875 C19.20610133 77.80340389 19.1890536 85.05208685 19.16796875 92.30078125 C20.01915283 92.29030762 20.87033691 92.27983398 21.74731445 92.26904297 C24.95856696 92.2346001 28.16972414 92.20970895 31.38110352 92.19091797 C32.76101819 92.18096859 34.1409124 92.1674042 35.52075195 92.14990234 C50.3957665 91.96619348 64.59991628 92.99362573 76.10546875 103.55078125 C84.87044652 113.17296956 85.74000033 123.92972245 85.29541016 136.31005859 C84.71914129 145.31177569 79.69830251 151.99073856 73.3203125 158.05859375 C62.3482338 167.02550817 50.41265913 166.82346385 36.98046875 166.55078125 C35.24806762 166.53067664 33.51564386 166.51243291 31.78320312 166.49609375 C27.57755672 166.45243181 23.37301829 166.38362681 19.16796875 166.30078125 C19.22863529 181.38309616 19.30622782 196.46525438 19.40368366 211.54737663 C19.44854966 218.55110031 19.48798519 225.55477418 19.5144043 232.55859375 C19.5399299 239.3214242 19.58089615 246.08402277 19.63115501 252.84671402 C19.64780154 255.42296703 19.65932956 257.99925851 19.66558266 260.57555771 C19.67524746 264.19237178 19.70333685 267.80861933 19.7355957 271.42529297 C19.73416061 272.48337662 19.73272552 273.54146027 19.73124695 274.63160706 C19.86229304 285.06461292 22.02109814 293.525417 29.16796875 301.30078125 C33.52640837 305.16394364 35.85712088 306.41058957 41.62890625 306.51171875 C42.74136719 306.54007812 43.85382813 306.5684375 45 306.59765625 C47.32277385 306.64887508 49.64570748 306.69338483 51.96875 306.73046875 C65.86323653 307.11244776 77.0559454 309.72441946 86.91796875 319.92578125 C95.05721062 329.74965691 97.12181961 341.92797294 96.16796875 354.30078125 C93.88919642 366.32610993 88.35768926 374.57653975 78.57421875 381.796875 C71.07565941 386.48347458 63.46607609 388.44563388 54.71875 388.5390625 C53.98786667 388.54713425 53.25698334 388.55520599 52.50395203 388.56352234 C50.95147041 388.57734082 49.39895869 388.58807296 47.84643555 388.59594727 C46.29230549 388.60733342 44.73821021 388.62756608 43.18432617 388.6574707 C16.95627724 389.16104474 -7.39550745 380.65651228 -26.56835938 362.51977539 C-28.00210077 361.12620763 -29.41725046 359.71359433 -30.83203125 358.30078125 C-31.70730469 357.43710937 -32.58257812 356.5734375 -33.484375 355.68359375 C-52.85390369 335.56793529 -62.03138892 307.46661363 -61.94555664 279.93969727 C-61.94570267 278.70972519 -61.94584869 277.47975311 -61.94599915 276.21250916 C-61.94542389 272.85763433 -61.94042562 269.50282184 -61.93342519 266.14795804 C-61.927153 262.63525659 -61.9265848 259.12255421 -61.92539978 255.60984802 C-61.92229783 248.96603774 -61.91409981 242.322244 -61.90405029 235.67844099 C-61.8928538 228.11131489 -61.8873698 220.54418799 -61.88235486 212.97705567 C-61.87191621 197.41828796 -61.85433885 181.85953674 -61.83203125 166.30078125 C-63.67559204 166.32797241 -63.67559204 166.32797241 -65.55639648 166.35571289 C-67.18863559 166.37037548 -68.82087874 166.38459351 -70.453125 166.3984375 C-71.66470276 166.41807556 -71.66470276 166.41807556 -72.90075684 166.43811035 C-83.80136422 166.50736453 -91.95299974 162.82656183 -99.83203125 155.30078125 C-107.47201584 147.10911287 -109.37997109 138.77757225 -109.31982422 127.75024414 C-108.95152881 117.72797781 -105.16157819 109.49254416 -98.19140625 102.2734375 C-89.14753835 94.71192543 -78.53957942 92.17430473 -66.9921875 92.26171875 C-66.02031494 92.2673584 -65.04844238 92.27299805 -64.04711914 92.27880859 C-63.31614014 92.28605957 -62.58516113 92.29331055 -61.83203125 92.30078125 C-61.8409137 91.49835495 -61.84979614 90.69592865 -61.85894775 89.8691864 C-61.93947966 82.26440015 -62.00018999 74.65982402 -62.03927994 67.05472088 C-62.06005293 63.14591294 -62.08817893 59.23746071 -62.13378906 55.32885742 C-62.17761868 51.54868443 -62.20124547 47.76885109 -62.21154022 43.98844337 C-62.21886572 42.55448888 -62.23316858 41.12055054 -62.25495148 39.68674278 C-62.45655473 25.85195427 -59.73680691 15.4562369 -49.984375 5.39453125 C-37.15217716 -6.64681543 -15.18286299 -9.10971779 0 0 Z " fill="#E94C59" transform="translate(528.83203125,34.69921875)"/>
<path d="M0 0 C11.01783571 -0.49186767 23.15539791 3.0626162 31.4921875 10.48828125 C40.14784146 20.04089417 43.47215997 30.76693657 43.38768005 43.4234314 C43.39306559 44.40764497 43.39845113 45.39185855 43.40399987 46.40589678 C43.41821573 49.67746632 43.4111914 52.94862759 43.40405273 56.22021484 C43.40975964 58.57657698 43.41672513 60.93293635 43.42485046 63.28929138 C43.44276187 69.67157282 43.44161718 76.05371661 43.43590808 82.43601561 C43.43359289 86.42725767 43.43581141 90.41847895 43.44038582 94.40971756 C43.44113424 95.07376004 43.44188266 95.73780253 43.44265376 96.42196751 C43.44418535 97.77128041 43.4457237 99.12059329 43.44726873 100.46990617 C43.46097463 113.10370769 43.45556966 125.73744716 43.44408352 138.37124725 C43.43415414 149.90854943 43.44709003 161.44569117 43.47101771 172.98296861 C43.49544848 184.85301006 43.50500677 196.7229769 43.49836498 208.59304297 C43.49488145 215.2477401 43.49738552 221.90233212 43.51461601 228.55701828 C43.53011658 234.81653053 43.52609468 241.07573719 43.50731087 247.3352375 C43.5036336 249.62648651 43.50670815 251.91775833 43.51719666 254.20898628 C43.58993176 271.41794216 42.82351468 283.97887709 30.30859375 296.8984375 C20.61567329 305.91667673 9.52515539 306.6140231 -3.05859375 306.4296875 C-8.72715022 306.21644029 -13.11631724 305.06429665 -18 302.15234375 C-18.76183594 301.75144531 -19.52367187 301.35054688 -20.30859375 300.9375 C-29.48275816 295.60008563 -34.92078857 287.05201119 -38.13919067 277.12272453 C-40.32713986 268.40911998 -39.55238802 258.96707657 -39.51757812 250.05688477 C-39.52300483 247.72155319 -39.53013056 245.38622504 -39.53881836 243.05090332 C-39.55699013 236.73474073 -39.55000917 230.4188407 -39.53730202 224.10267377 C-39.52817288 218.14971029 -39.53515806 212.1967786 -39.5410108 206.24381422 C-39.5523917 193.73394126 -39.53934261 181.22418593 -39.51780933 168.71433228 C-39.49994476 158.00472709 -39.50304194 147.29529541 -39.52148438 136.58569336 C-39.5429425 124.11920872 -39.55128892 111.65282697 -39.53903532 99.18632644 C-39.53281654 92.59813426 -39.53192019 86.01006131 -39.54518127 79.42187691 C-39.55678339 73.22552035 -39.5486342 67.0294896 -39.52560425 60.83316803 C-39.52034022 58.56653063 -39.52179111 56.29986555 -39.53065491 54.03323936 C-39.58679927 38.21059305 -39.55708649 24.27498979 -28 12.15234375 C-27.47664063 11.58902344 -26.95328125 11.02570313 -26.4140625 10.4453125 C-19.29495316 3.58665838 -9.62749005 0.73334397 0 0 Z " fill="#E94C59" transform="translate(367,116.84765625)"/>
<path d="M0 0 C10.67390703 8.00543027 16.61745906 18.03664699 19.6875 30.875 C21.24720093 46.47200933 18.13766337 59.98831042 8.1171875 72.31640625 C-0.13284752 81.11755697 -11.7543325 87.49701428 -23.90625 88.23828125 C-39.32889391 88.61378617 -51.86279574 85.45511125 -63.51171875 74.67578125 C-73.46216392 64.19903154 -77.79157711 52.38117949 -78 38 C-77.45319436 25.66649502 -72.54759282 13.69760768 -63.93359375 4.73828125 C-46.00597546 -11.3784665 -19.96782815 -14.45040195 0 0 Z " fill="#E94D5B" transform="translate(398,15)"/>
<path d="M0 0 C0.66 0.33 1.32 0.66 2 1 C-2.62 5.62 -7.24 10.24 -12 15 C-12 10.09687565 -8.29800369 7.38658643 -5 4 C-3.37458956 2.61667196 -1.72614587 1.25537882 0 0 Z " fill="#F19194" transform="translate(244,5)"/>
<path d="M0 0 C0.66 0.33 1.32 0.66 2 1 C-2.29 5.29 -6.58 9.58 -11 14 C-11 10.30159372 -10.17133056 9.68584567 -7.75 7 C-7.14671875 6.319375 -6.5434375 5.63875 -5.921875 4.9375 C-4.06233388 3.06284066 -2.15205789 1.52358081 0 0 Z " fill="#F18C8F" transform="translate(346,123)"/>
<path d="M0 0 C0.66 0.33 1.32 0.66 2 1 C-1.96 4.96 -5.92 8.92 -10 13 C-10 9.28115772 -9.1259934 8.63852271 -6.6875 5.9375 C-5.76517578 4.89916016 -5.76517578 4.89916016 -4.82421875 3.83984375 C-3 2 -3 2 0 0 Z " fill="#F29194" transform="translate(638,133)"/>
<path d="M0 0 C0.66 0.33 1.32 0.66 2 1 C-1.96 4.96 -5.92 8.92 -10 13 C-10 9.28115772 -9.1259934 8.63852271 -6.6875 5.9375 C-5.76517578 4.89916016 -5.76517578 4.89916016 -4.82421875 3.83984375 C-3 2 -3 2 0 0 Z " fill="#F1888C" transform="translate(436,133)"/>
<path d="M0 0 C0.66 0.33 1.32 0.66 2 1 C-1.3 4.3 -4.6 7.6 -8 11 C-8.66 10.67 -9.32 10.34 -10 10 C-6.92118304 6.12948725 -3.99926986 2.97088618 0 0 Z " fill="#F29497" transform="translate(341,14)"/>
</svg>
